<svg id="Layer_1" data-name="Layer 1" xmlns="http://www.w3.org/2000/svg" xmlns:xlink="http://www.w3.org/1999/xlink" viewBox="0 0 300 300"><defs><style>.cls-1{fill:url(#linear-gradient);}.cls-2{fill:#fff;}</style><linearGradient id="linear-gradient" x1="18508.26" y1="7178.76" x2="18508.26" y2="7776.76" gradientTransform="translate(7949.74 18524.89) rotate(-135)" gradientUnits="userSpaceOnUse"><stop offset="0" stop-color="#b0084d"/><stop offset="1" stop-color="#ff4f8b"/></linearGradient></defs><title>-icon-color</title><rect id="Pink_Gradient" data-name="Pink Gradient" class="cls-1" x="0.5" y="0.5" width="299" height="299"/><g id="Icon_Test" data-name="Icon Test"><path class="cls-2" d="M218.09,203.5l-.16,3.31c0-.4-.08-.8-.08-1.2A9.29,9.29,0,0,1,218.09,203.5Z"/><path class="cls-2" d="M165.75,124.05l-.4.75a2.7,2.7,0,0,0,.36-.79Z"/><path class="cls-2" d="M131.18,110.25c-3.55,0-34.88-.28-34.88,11.56a5.67,5.67,0,0,0,.4,2.2,7,7,0,0,0,.4.83l21.68,48v24.76c0,2.51,1,4,3.23,4h.52c.16,0,.36,0,.52,0,4.58-.6,9.61-4.19,13.63-7.06,1-.76,2-1.39,2.68-1.87a4,4,0,0,0,1.87-3.35V172.8l24.12-48v0a2.7,2.7,0,0,0,.36-.79,5.67,5.67,0,0,0,.4-2.2C166.11,110,134.77,110.25,131.18,110.25Zm0,7.34c14.08,0,23.13,2.47,26.16,4.22-3,1.76-12.08,4.23-26.16,4.23s-23.08-2.47-26.11-4.23C108.1,120.06,117.11,117.59,131.18,117.59Zm2.91,51.83c-.08.55.12,1.55,0,2.59l0,15.58c-1.15.72-1.11.72-1.55,1-2.27,1.32-4.27,2.23-6.54,3.43V172a4.56,4.56,0,0,0-.32-1.6l-17-38.83c9.17,2.35,20.45,2.47,22.48,2.47s12.8-.12,21.85-2.31Z"/><path class="cls-2" d="M203.62,220.44a90.87,90.87,0,0,1-53.46,17.27c-43.38,0-80.37-28.19-89.06-69.85A18,18,0,0,0,77.76,154H98.09v-7.46H77.84A17.88,17.88,0,0,0,61.18,132.1c9.33-40.86,46.2-69.81,89-69.81A90.75,90.75,0,0,1,202.31,78.6l4.54-6.54a98.77,98.77,0,0,0-56.69-17.74c-47.8,0-88.74,33.09-97.51,79.49a17.87,17.87,0,0,0,.12,32.42A99.4,99.4,0,0,0,208.29,226.9ZM50.33,150a10,10,0,0,1,8.77-9.89,3.66,3.66,0,0,1,.64,0,2.28,2.28,0,0,1,.52,0,10,10,0,1,1-9.93,10Z"/><path class="cls-2" d="M59.74,140.07a.15.15,0,0,0,0,.12l-.6-.08A3.66,3.66,0,0,1,59.74,140.07Z"/><path class="cls-2" d="M239.74,167.82a17.92,17.92,0,1,0-17.54-21.65H201.47l-.2-49.31,10.76,0a18,18,0,1,0,.32-6.42l-14.67-.2c-2-.48-3.83,1.32-3.83,3.51v52.46H163.2v7.38h30.65v52.14a4,4,0,0,0,4,4h12.52a17.94,17.94,0,1,0-.2-7.06l-8.49,0-.2-49.11h20.69A18,18,0,0,0,239.74,167.82Zm0-27.87a10,10,0,1,1-10,10A10,10,0,0,1,239.74,140Zm-10-55.45a9.93,9.93,0,1,1-9.92,9.93A9.93,9.93,0,0,1,229.77,84.5Zm-2,111.19a9.95,9.95,0,1,1-9.85,11.2v-.08c0-.4-.08-.8-.08-1.2a9.29,9.29,0,0,1,.24-2.11v0A10,10,0,0,1,227.78,195.69Z"/></g></svg>